HIERARCHY
ROOT Hips
{
  OFFSET -33.9132 29.2015 117.021
  CHANNELS 6 Xposition Yposition Zposition Zrotation Xrotation Yrotation
  JOINT LeftUpLeg
  {
    OFFSET 8.64259 1.95398 -2.38835
    CHANNELS 3 Zrotation Xrotation Yrotation
    JOINT LeftLeg
    {
      OFFSET 43.7702 0 0
      CHANNELS 3 Zrotation Xrotation Yrotation
      JOINT LeftFoot
      {
        OFFSET 40.6238 0 0
        CHANNELS 3 Zrotation Xrotation Yrotation
        JOINT LeftToeBase
        {
          OFFSET 12.7242 0 0
          CHANNELS 3 Zrotation Xrotation Yrotation
          End Site
          {
            OFFSET 0 0 0
          }
        }
      }
    }
  }
  JOINT RightUpLeg
  {
    OFFSET -8.2249 1.95398 -2.59336
    CHANNELS 3 Zrotation Xrotation Yrotation
    JOINT RightLeg
    {
      OFFSET 43.5653 0 0
      CHANNELS 3 Zrotation Xrotation Yrotation
      JOINT RightFoot
      {
        OFFSET 40.6238 0 0
        CHANNELS 3 Zrotation Xrotation Yrotation
        JOINT RightToeBase
        {
          OFFSET 12.7242 0 0
          CHANNELS 3 Zrotation Xrotation Yrotation
          End Site
          {
            OFFSET 0 0 0
          }
        }
      }
    }
  }
  JOINT Spine
  {
    OFFSET 0.165834 0.87714 6.61349
    CHANNELS 3 Zrotation Xrotation Yrotation
    JOINT Spine1
    {
      OFFSET 7.38963 1.71661e-005 0
      CHANNELS 3 Zrotation Xrotation Yrotation
      JOINT Spine2
      {
        OFFSET 11.9445 1.14441e-005 0
        CHANNELS 3 Zrotation Xrotation Yrotation
        JOINT Spine3
        {
          OFFSET 14.7254 4.19617e-005 0
          CHANNELS 3 Zrotation Xrotation Yrotation
          JOINT Spine4
          {
            OFFSET 10.9679 0 0
            CHANNELS 3 Zrotation Xrotation Yrotation
            JOINT RightShoulder
            {
              OFFSET 2.46616 -1.6653 3.69651
              CHANNELS 3 Zrotation Xrotation Yrotation
              JOINT RightArm
              {
                OFFSET 13.0012 0 0
                CHANNELS 3 Zrotation Xrotation Yrotation
                JOINT RightForeArm
                {
                  OFFSET 28.7848 1.62311e-005 0
                  CHANNELS 3 Zrotation Xrotation Yrotation
                  JOINT RightHand
                  {
                    OFFSET 26.5688 1.62095e-005 0
                    CHANNELS 3 Zrotation Xrotation Yrotation
                    End Site
                    {
                      OFFSET 0 0 0
                    }
                  }
                }
              }
            }
            JOINT LeftShoulder
            {
              OFFSET 2.38034 -1.29275 -3.7523
              CHANNELS 3 Zrotation Xrotation Yrotation
              JOINT LeftArm
              {
                OFFSET 16.3182 6.07031e-005 0
                CHANNELS 3 Zrotation Xrotation Yrotation
                JOINT LeftForeArm
                {
                  OFFSET 27.0901 0 0
                  CHANNELS 3 Zrotation Xrotation Yrotation
                  JOINT LeftHand
                  {
                    OFFSET 24.5451 1.51738e-005 0
                    CHANNELS 3 Zrotation Xrotation Yrotation
                    End Site
                    {
                      OFFSET 0 0 0
                    }
                  }
                }
              }
            }
            JOINT Neck
            {
              OFFSET 5.0226 -0.0266342 0
              CHANNELS 3 Zrotation Xrotation Yrotation
              JOINT Head
              {
                OFFSET 6.69364 2.86102e-005 0
                CHANNELS 3 Zrotation Xrotation Yrotation
                End Site
                {
                  OFFSET 0 0 0
                }
              }
            }
          }
        }
      }
    }
  }
}
MOTION
Frames:	6
Frame Time:	0.0416667
-262.342 89.9631 -228.143 101.812 -44.7101 97.4614 -174.11 36.0563 85.8284 -35.1896 3.88027 -2.67002 65.7243 4.781 3.60419 23.3752 -1.29393 -2.52652 171.934 -5.10629 91.0294 -50.2623 -16.4517 -1.1803 81.6163 -16.5591 -6.46136 38.138 -5.23906 7.16754 1.26327 8.23986 -90.493 10.4066 2.29067 -1.18037 -1.26298 2.23651 -1.28008 -23.8134 2.53945 -0.436997 -3.8008 2.53947 -0.436993 91.6252 -21.8045 -106.67 32.938 5.77205 -13.8924 -1.04394 2.73332 -40.7329 -21.7877 14.8088 -74.8227 -86.9089 -44.706 82.4524 -18.9652 9.26023 2.45632 -15.7903 -8.60339 -47.864 -14.5017 5.53479 -53.6235 9.83438 -3.83776 -0.515779 -9.58318 -3.62223 -0.384916 
-255.255 91.9025 -220.489 104.209 -42.6379 99.292 -176.157 27.1753 86.0083 -14.2832 7.91859 -2.0506 60.7978 2.29223 0.467856 25.9211 -1.62351 0.610471 171.623 -14.2984 90.235 -44.0333 -17.7772 -1.34004 69.8954 -6.761 -6.07371 42.7474 -7.52023 15.021 1.47153 8.23243 -90.5056 10.4249 2.69976 -1.24294 -1.244 2.64247 -1.36063 -23.8007 2.94842 -0.37349 -3.78803 2.9484 -0.373495 91.6456 -20.9185 -107.019 35.5275 2.98741 6.21163 -1.02385 1.33073 -59.085 -25.3537 14.6639 -65.8379 -87.2749 -43.491 81.6342 -18.7717 9.41161 4.77328 -16.0126 -9.33449 -48.3787 -10.8743 3.59186 -50.0385 5.78103 -5.77678 -3.00572 -9.89246 -5.12757 -0.0158565 
-248.583 92.8558 -212.823 102.688 -42.1991 99.1576 -177.347 24.5506 86.8946 -6.91525 7.29294 -1.5244 57.8689 0.998372 -1.70705 23.6516 -4.4882 4.32548 174.778 -16.1154 93.2395 -45.7775 -21.1897 -3.14654 61.6251 0.389133 1.10344 26.3788 -0.385405 5.14243 1.67784 7.80248 -90.5194 11.2899 3.0975 -1.33609 -0.378164 3.0357 -1.47122 -22.9424 3.35571 -0.34246 -2.92974 3.35571 -0.342462 91.5172 -20.6016 -107.461 37.1079 0.317497 27.2305 -2.37124 0.823922 -76.8527 -21.9663 10.3363 -55.961 -87.0904 -40.8663 81.4167 -20.3302 10.4328 6.76408 -18.9101 -12.2707 -49.2289 -10.9868 3.31195 -46.4217 -1.11303 -6.27945 -5.72148 -7.96503 -5.45727 -0.918076 
-242.044 92.0258 -205.949 102.175 -43.9725 99.9204 -175.617 26.3139 87.9817 -16.1493 8.78226 -2.03544 58.1565 -0.240963 -2.98784 24.9191 -3.78959 4.22356 175.921 -13.5966 93.3649 -54.3266 -23.5385 -4.14212 57.8979 2.29177 -1.14829 19.2877 2.13589 6.71974 1.95159 7.59811 -90.5815 11.7055 3.60891 -1.53737 0.0384044 3.53777 -1.69486 -22.5358 3.90389 -0.380203 -2.52313 3.90387 -0.380205 92.1168 -20.2468 -106.225 36.3802 0.698836 41.349 -9.79735 -1.67571 -89.194 -8.45689 3.44542 -53.6058 -87.2478 -40.4106 81.061 -19.5916 10.8043 7.52565 -18.9277 -12.2193 -49.8357 -12.6662 3.9053 -46.1426 -1.76412 -6.88277 -7.33844 -9.15386 -5.94419 0.233373 
-235.497 91.0311 -199.407 105.357 -45.2797 102.297 -173.814 27.8526 88.4744 -29.2262 16.7852 -3.55162 51.1807 -6.23624 1.67896 22.5242 -0.293905 -5.4012 173.719 -11.645 90.7005 -62.8317 -11.4947 -3.44905 60.9064 -0.317737 -2.0638 16.3514 2.78365 8.20182 1.83309 7.78746 -90.6103 11.3244 3.3635 -1.5509 -0.343291 3.29198 -1.69755 -22.9123 3.67391 -0.467154 -2.89961 3.67392 -0.467152 92.1851 -20.1344 -106.117 36.3927 -0.376722 44.1493 -8.57063 -0.36794 -91.8869 -3.33097 1.20026 -53.8051 -87.7368 -42.1665 80.6132 -17.6544 10.2612 9.56431 -19.0994 -12.0348 -50.7605 -12.1601 3.73796 -46.3121 -0.612271 -5.62304 -6.71668 -9.91113 -4.7528 1.12844 
-230.272 89.8135 -193.914 107.962 -44.7727 102.137 -171.589 29.1684 85.4992 -45.7053 18.8408 -4.19137 64.1548 3.25667 6.5161 5.53285 -12.5333 1.28679 170.486 -5.60612 86.576 -73.0688 0.686954 -2.90426 66.4212 -4.57105 -1.86666 18.0134 2.74837 6.44589 1.31739 8.01863 -90.301 10.8498 2.48421 -0.828046 -0.819008 2.44536 -0.936635 -23.3737 2.61815 -0.0426496 -3.36107 2.61816 -0.0426544 91.6194 -22.7407 -106.285 36.0276 -0.547258 44.1812 -9.99683 -0.2317 -93.29 -5.78388 2.17237 -51.2131 -87.8047 -43.1159 80.6986 -15.9996 10.2146 9.10608 -17.2758 -10.6547 -48.4717 -13.9218 4.84607 -50.1716 0.192582 -3.99884 -7.49232 -9.8824 -3.05983 2.45557 
